# xmcd
#
# Track frame offsets:
#	150
#	13222
#	31169
#	46074
#	66660
#	76339
#	87591
#	105616
#	118051
#	133190
#	144455
#	165093
#	175799
#	194539
#	206831
#	221086
#	234574
#	244903
#	260068
#
# Disc length: 3627 seconds
#
# Revision: 1
# Processed by: cddbd v1.5.2PL0 Copyright (c) Steve Scherf et al.
# Submitted via: audiograbber 1.83.01
#
DISCID=1a0e2913
DTITLE=Johnny Cash - D3
DYEAR=1900
DGENRE=Karaoke
TTITLE0=Cash, Johnny - Big River
TTITLE1=Cash, Johnny - September When It Comes
TTITLE2=Cash, Johnny - Orange Blossom Special
TTITLE3=Cash, Johnny - Sunday Morning Coming Down
TTITLE4=Cash, Johnny - One Piece At A Time
TTITLE5=Cash, Johnny - Daddy Sang Bass
TTITLE6=Cash, Johnny - A Boy Named Sue
TTITLE7=Cash, Johnny - I Walk The Line
TTITLE8=Cash, Johnny - Jackson
TTITLE9=Cash, Johnny - Ballad Of A Teenage Queen
TTITLE10=Cash, Johnny - Ballad Of Ira Hayes
TTITLE11=Cash, Johnny - I Got Stripes
TTITLE12=Cash, Johnny - Ghost Riders In The Sky
TTITLE13=Cash, Johnny - Ring Of Fire
TTITLE14=Cash, Johnny - Man In Black
TTITLE15=Cash, Johnny - Folsom Prison
TTITLE16=Cash, Johnny - Buess Things Happen That Way
TTITLE17=Cash, Johnny - Give My Love To Rose
TTITLE18=Cash, Johnny - San Quentin
EXTD=
EXTT0=
EXTT1=
EXTT2=
EXTT3=
EXTT4=
EXTT5=
EXTT6=
EXTT7=
EXTT8=
EXTT9=
EXTT10=
EXTT11=
EXTT12=
EXTT13=
EXTT14=
EXTT15=
EXTT16=
EXTT17=
EXTT18=
PLAYORDER=
